# xmcd
#
# Track frame offsets: 
#        150
#        10116
#        22104
#        32823
#        45950
#        57831
#        69792
#        80712
#        90568
#        100331
#        111588
#        122710
#        132939
#        147376
#        160718
#
# Disc length: 2308 seconds
#
# Revision: 0
# Processed by: cddbd v1.5.2PL0 Copyright (c) Steve Scherf et al.
# Submitted via: ExactAudioCopy v0.99pb3
#
DISCID=c409020f
DTITLE=Johnny Cash - Johnny Cash - Forever Gold
DYEAR=1900
DGENRE=Country
TTITLE0=Goodbye Little Darling
TTITLE1=Goodnight Irene
TTITLE2=Train Of Love
TTITLE3=Thanks A Lot
TTITLE4=Home Of The Blues
TTITLE5=You're The Nearest Thing To Heaven
TTITLE6=I Love You Because
TTITLE7=Ballad Of A Teenage Queen
TTITLE8=Rock Island Line
TTITLE9=Mean-Eyed Cat
TTITLE10=Oh Lonesome Me
TTITLE11=You Win Again
TTITLE12=Wildwood Flower (The Carter Family)
TTITLE13=Wabash Cannonball (The Carter Family)
TTITLE14=Anchored In Love (The Carter Family)
EXTD=
EXTT0=
EXTT1=
EXTT2=
EXTT3=
EXTT4=
EXTT5=
EXTT6=
EXTT7=
EXTT8=
EXTT9=
EXTT10=
EXTT11=
EXTT12=
EXTT13=
EXTT14=
PLAYORDER=
